<?xml version="1.0" encoding="UTF-8" standalone="no"?>
<!-- Created with Inkscape (http://www.inkscape.org/) -->

<svg
   xmlns:dc="http://purl.org/dc/elements/1.1/"
   xmlns:cc="http://creativecommons.org/ns#"
   xmlns:rdf="http://www.w3.org/1999/02/22-rdf-syntax-ns#"
   xmlns:svg="http://www.w3.org/2000/svg"
   xmlns="http://www.w3.org/2000/svg"
   xmlns:sodipodi="http://sodipodi.sourceforge.net/DTD/sodipodi-0.dtd"
   xmlns:inkscape="http://www.inkscape.org/namespaces/inkscape"
   width="1024.0007"
   height="1024.0035"
   id="svg3053"
   version="1.1"
   inkscape:version="0.48.4 r9939"
   sodipodi:docname="weblogo_banner2.svg"
   inkscape:export-filename="D:\Documents\ocean ship\logo\weblogo_banner.png"
   inkscape:export-xdpi="90"
   inkscape:export-ydpi="90">
  <defs
     id="defs3055" />
  <sodipodi:namedview
     id="base"
     pagecolor="#2b66ec"
     bordercolor="#666666"
     borderopacity="1.0"
     inkscape:pageopacity="1"
     inkscape:pageshadow="2"
     inkscape:zoom="0.5"
     inkscape:cx="345.95014"
     inkscape:cy="522.34547"
     inkscape:document-units="px"
     inkscape:current-layer="layer1"
     showgrid="true"
     inkscape:showpageshadow="false"
     inkscape:snap-grids="true"
     inkscape:snap-global="true"
     inkscape:snap-bbox="false"
     inkscape:snap-center="true"
     inkscape:snap-object-midpoints="true"
     inkscape:window-width="1280"
     inkscape:window-height="962"
     inkscape:window-x="1272"
     inkscape:window-y="-8"
     inkscape:window-maximized="1"
     inkscape:snap-to-guides="true"
     fit-margin-top="112.74"
     fit-margin-left="10"
     fit-margin-right="-19.94"
     fit-margin-bottom="112.74"
     showborder="true">
    <inkscape:grid
       type="xygrid"
       id="grid3061"
       empspacing="5"
       visible="true"
       enabled="true"
       snapvisiblegridlinesonly="true"
       originx="15.72199px"
       originy="179.8659px" />
  </sodipodi:namedview>
  <metadata
     id="metadata3058">
    <rdf:RDF>
      <cc:Work
         rdf:about="">
        <dc:format>image/svg+xml</dc:format>
        <dc:type
           rdf:resource="http://purl.org/dc/dcmitype/StillImage" />
        <dc:title></dc:title>
      </cc:Work>
    </rdf:RDF>
  </metadata>
  <g
     inkscape:label="Layer 1"
     inkscape:groupmode="layer"
     id="layer1"
     transform="translate(15.72199,-208.22486)">
    <g
       id="g3928"
       transform="matrix(1.7019654,0,0,1.7019654,-431.19632,-680.05193)"
       inkscape:export-filename="D:\Documents\ocean ship\logo\weblogo_banner.png"
       inkscape:export-xdpi="90"
       inkscape:export-ydpi="90">
      <g
         id="g3930"
         transform="matrix(1.3500001,0,0,1.3500001,-187.25004,-310.57682)">
        <g
           transform="matrix(1.2345679,0,0,1.2345679,131.2963,-362.46768)"
           id="g3932">
          <g
             id="g3934">
            <path
               sodipodi:type="arc"
               style="fill:#edb32b;fill-opacity:1;fill-rule:nonzero;stroke:#2b65ec;stroke-width:0;stroke-miterlimit:0;stroke-opacity:1;stroke-dasharray:none"
               id="path3936"
               sodipodi:cx="410"
               sodipodi:cy="464.09448"
               sodipodi:rx="45"
               sodipodi:ry="45"
               d="m 455,464.09448 c 0,24.85282 -20.14719,45 -45,45 -24.85281,0 -45,-20.14718 -45,-45 0,-24.85281 20.14719,-45 45,-45 24.85281,0 45,20.14719 45,45 z"
               transform="translate(-29.000003,431.26771)" />
          </g>
        </g>
      </g>
    </g>
    <g
       transform="matrix(1.7019654,0,0,1.7019654,-431.19632,-680.05193)"
       id="g3904"
       style="fill:#ffffff;fill-opacity:1"
       inkscape:export-filename="D:\Documents\ocean ship\logo\weblogo_banner.png"
       inkscape:export-xdpi="90"
       inkscape:export-ydpi="90">
      <g
         transform="matrix(1.3500001,0,0,1.3500001,-187.25004,-310.57682)"
         id="g3906"
         style="fill:#ffffff;fill-opacity:1">
        <g
           id="g3908"
           transform="matrix(1.2345679,0,0,1.2345679,131.2963,-362.46768)"
           style="fill:#ffffff;fill-opacity:1">
          <g
             id="g3926"
             style="fill:#ffffff;fill-opacity:1">
            <path
               transform="translate(-29.000003,431.26771)"
               d="m 455,464.09448 c 0,24.85282 -20.14719,45 -45,45 -24.85281,0 -45,-20.14718 -45,-45 0,-24.85281 20.14719,-45 45,-45 24.85281,0 45,20.14719 45,45 z"
               sodipodi:ry="45"
               sodipodi:rx="45"
               sodipodi:cy="464.09448"
               sodipodi:cx="410"
               id="path3910"
               style="fill:#ffffff;fill-opacity:1;fill-rule:nonzero;stroke:#2b65ec;stroke-width:0;stroke-miterlimit:0;stroke-opacity:1;stroke-dasharray:none"
               sodipodi:type="arc" />
          </g>
        </g>
      </g>
    </g>
    <path
       sodipodi:type="arc"
       id="path3815"
       style="fill:#ffffff;stroke:none"
       sodipodi:cx="880"
       sodipodi:cy="692.36218"
       sodipodi:rx="0"
       sodipodi:ry="0"
       transform="matrix(1.7019654,0,0,1.7019654,-358.87981,-505.65281)"
       inkscape:export-filename="D:\Documents\ocean ship\logo\weblogo_banner.png"
       inkscape:export-xdpi="90"
       inkscape:export-ydpi="90" />
    <path
       style="color:#000000;fill:#ffffff;fill-opacity:1;fill-rule:nonzero;stroke:#ffffff;stroke-width:0;stroke-linecap:butt;stroke-linejoin:miter;stroke-miterlimit:0;stroke-opacity:1;stroke-dasharray:none;stroke-dashoffset:0;marker:none;visibility:visible;display:inline;overflow:visible;enable-background:accumulate"
       d="m 968.6532,987.58725 59.5688,0"
       id="path3869"
       inkscape:connector-curvature="0"
       inkscape:export-filename="D:\Documents\ocean ship\logo\weblogo_banner.png"
       inkscape:export-xdpi="90"
       inkscape:export-ydpi="90" />
    <g
       id="g3944"
       transform="matrix(1.7019654,0,0,1.7019654,-350.36998,-509.90771)"
       inkscape:export-filename="D:\Documents\ocean ship\logo\weblogo_banner.png"
       inkscape:export-xdpi="90"
       inkscape:export-ydpi="90" />
    <g
       id="g3961"
       style="fill:#edb32b;fill-opacity:1;stroke:#edb32b;stroke-width:5;stroke-miterlimit:0;stroke-opacity:1;stroke-dasharray:none"
       transform="matrix(1.7019654,0,0,1.7019654,-358.87981,-505.6528)"
       inkscape:export-filename="D:\Documents\ocean ship\logo\weblogo_banner.png"
       inkscape:export-xdpi="90"
       inkscape:export-ydpi="90">
      <rect
         y="812.36218"
         x="397.5"
         height="90"
         width="15"
         id="rect3877"
         style="fill:#edb32b;fill-opacity:1;fill-rule:nonzero;stroke:#edb32b;stroke-width:5;stroke-miterlimit:0;stroke-opacity:1;stroke-dasharray:none" />
      <path
         style="fill:#edb32b;fill-opacity:1;fill-rule:nonzero;stroke:#edb32b;stroke-width:5;stroke-miterlimit:0;stroke-opacity:1;stroke-dasharray:none"
         d="m 470,499.09375 c -24.85281,0 -45,20.14719 -45,45 l 0,100 15,0 0,-66.46875 c 7.96243,7.13044 18.4703,11.46875 30,11.46875 24.85281,0 45,-20.14719 45,-45 0,-24.85281 -20.14719,-45 -45,-45 z m 0,15 c 16.56854,0 30,13.43146 30,30 0,16.56854 -13.43146,30 -30,30 -16.56854,0 -30,-13.43146 -30,-30 0,-16.56854 13.43146,-30 30,-30 z"
         transform="translate(0,308.2677)"
         id="path3862"
         inkscape:connector-curvature="0" />
      <path
         style="fill:#edb32b;fill-opacity:1;fill-rule:nonzero;stroke:#edb32b;stroke-width:5;stroke-miterlimit:0;stroke-opacity:1;stroke-dasharray:none"
         d="m 285,504.03125 c -24.85281,0 -45,20.14719 -45,45 0,16.56854 -13.43146,30 -30,30 l 0,15 c 24.85281,0 45,-20.14719 45,-45 0,-16.56854 13.43146,-30 30,-30 l 0,-15 z"
         transform="translate(0,308.2677)"
         id="path3784"
         inkscape:connector-curvature="0" />
      <path
         style="fill:#edb32b;fill-opacity:1;fill-rule:nonzero;stroke:#edb32b;stroke-width:5;stroke-miterlimit:0;stroke-opacity:1;stroke-dasharray:none"
         d="m 295.0625,449.09375 0,100 0,45 15,0 0,-45 c 0,-16.56854 13.43146,-30 30,-30 16.56854,0 30,13.43146 30,30 l 0,45 15,0 0,-45 c 0,-24.85281 -20.14719,-45 -45,-45 -11.51528,0 -22.04115,4.32297 -30,11.4375 l 0,-66.4375 -15,0 z"
         transform="translate(0,308.2677)"
         id="path3864"
         inkscape:connector-curvature="0" />
    </g>
    <path
       sodipodi:type="arc"
       style="fill:#ffffff;fill-opacity:1;fill-rule:nonzero;stroke:#2b65ec;stroke-width:0;stroke-miterlimit:0;stroke-opacity:1;stroke-dasharray:none"
       id="path3082"
       sodipodi:cx="410"
       sodipodi:cy="464.09448"
       sodipodi:rx="45"
       sodipodi:ry="45"
       d="m 455,464.09448 c 0,24.85282 -20.14719,45 -45,45 -24.85281,0 -45,-20.14718 -45,-45 0,-24.85281 20.14719,-45 45,-45 24.85281,0 45,20.14719 45,45 z"
       transform="matrix(1.3237509,0,0,1.3237509,-212.3217,186.02558)"
       inkscape:export-filename="D:\Documents\ocean ship\logo\weblogo_banner.png"
       inkscape:export-xdpi="90"
       inkscape:export-ydpi="90" />
    <path
       inkscape:connector-curvature="0"
       id="path3080"
       d="m 330.41617,754.03976 c -25.58802,0 -46.33123,20.74331 -46.33123,46.33133 0,25.58804 20.74321,46.33124 46.33123,46.33124 25.58804,0 46.33125,-20.7432 46.33125,-46.33124 0,-25.58802 -20.74321,-46.33133 -46.33125,-46.33133 z m 0,15.44381 c 17.05872,0 30.88753,13.82881 30.88753,30.88752 0,17.05872 -13.82881,30.88752 -30.88753,30.88752 -17.05871,0 -30.88751,-13.8288 -30.88751,-30.88752 0,-17.05871 13.8288,-30.88752 30.88751,-30.88752 z"
       style="fill:#2b65ec;fill-opacity:1;fill-rule:nonzero;stroke:#000000;stroke-width:0;stroke-miterlimit:0;stroke-opacity:1;stroke-dasharray:none"
       inkscape:export-filename="D:\Documents\ocean ship\logo\weblogo_banner.png"
       inkscape:export-xdpi="90"
       inkscape:export-ydpi="90" />
    <path
       transform="matrix(1.7019654,0,0,1.7019654,-324.8405,-108.63917)"
       d="m 455,464.09448 c 0,24.85282 -20.14719,45 -45,45 -24.85281,0 -45,-20.14718 -45,-45 0,-24.85281 20.14719,-45 45,-45 24.85281,0 45,20.14719 45,45 z"
       sodipodi:ry="45"
       sodipodi:rx="45"
       sodipodi:cy="464.09448"
       sodipodi:cx="410"
       id="path3865"
       style="fill:#ffffff;fill-opacity:1;fill-rule:nonzero;stroke:#2b65ec;stroke-width:0;stroke-miterlimit:0;stroke-opacity:1;stroke-dasharray:none"
       sodipodi:type="arc"
       inkscape:export-filename="D:\Documents\ocean ship\logo\weblogo_banner.png"
       inkscape:export-xdpi="90"
       inkscape:export-ydpi="90" />
    <path
       style="fill:#2b65ec;fill-opacity:1;fill-rule:nonzero;stroke:#000000;stroke-width:0;stroke-miterlimit:0;stroke-opacity:1;stroke-dasharray:none"
       d="m 372.96531,619.96277 c -33.83889,0 -61.27076,27.43186 -61.27076,61.27074 0,33.83891 27.43187,61.27076 61.27076,61.27076 33.8389,0 61.27076,-27.43185 61.27076,-61.27076 l -20.42359,0 c 0,22.55922 -18.28787,40.84717 -40.84717,40.84717 -22.5593,0 -40.84717,-18.28795 -40.84717,-40.84717 0,-22.55929 18.28787,-40.84717 40.84717,-40.84717 l 0,-20.42357 z"
       id="path3776"
       inkscape:connector-curvature="0"
       inkscape:export-filename="D:\Documents\ocean ship\logo\weblogo_banner.png"
       inkscape:export-xdpi="90"
       inkscape:export-ydpi="90" />
    <g
       transform="matrix(1.6849458,0,0,1.6849458,-555.71218,-664.15079)"
       id="g3877"
       style="fill:#ffffff"
       inkscape:export-filename="D:\Documents\ocean ship\logo\weblogo_banner.png"
       inkscape:export-xdpi="90"
       inkscape:export-ydpi="90">
      <g
         id="g3879"
         transform="matrix(1.2345679,0,0,1.2345679,131.2963,-362.46768)"
         style="fill:#ffffff">
        <path
           sodipodi:type="arc"
           style="fill:#ffffff;fill-opacity:1;fill-rule:nonzero;stroke:#2b65ec;stroke-width:0;stroke-miterlimit:0;stroke-opacity:1;stroke-dasharray:none"
           id="path3881"
           sodipodi:cx="410"
           sodipodi:cy="464.09448"
           sodipodi:rx="45"
           sodipodi:ry="45"
           d="m 455,464.09448 c 0,24.85282 -20.14719,45 -45,45 -24.85281,0 -45,-20.14718 -45,-45 0,-24.85281 20.14719,-45 45,-45 24.85281,0 45,20.14719 45,45 z"
           transform="translate(-29.000003,431.26771)" />
      </g>
    </g>
    <g
       id="g3910"
       transform="matrix(1.7019654,0,0,1.7019654,-736.71612,-709.88865)"
       inkscape:export-filename="D:\Documents\ocean ship\logo\weblogo_banner.png"
       inkscape:export-xdpi="90"
       inkscape:export-ydpi="90">
      <g
         id="g3886">
        <g
           id="g3890"
           transform="translate(-8,120)">
          <path
             inkscape:connector-curvature="0"
             style="fill:#2b65ec;fill-opacity:1;fill-rule:nonzero;stroke:#000000;stroke-width:0;stroke-miterlimit:0;stroke-opacity:1;stroke-dasharray:none"
             d="m 755,642.36218 c 0,-24.85281 -20.14719,-45 -45,-45 -24.85281,0 -45,20.14719 -45,45 0,24.85281 20.14719,45 45,45 l 0,-15 c -16.56854,0 -30,-13.43146 -30,-30 0,-16.56854 13.43146,-30 30,-30 16.56854,0 30,13.43146 30,30 l 15,0 z"
             id="path3789" />
          <rect
             y="627.36218"
             x="670"
             height="15"
             width="80"
             id="rect3791"
             style="fill:#2b65ec;fill-opacity:1;fill-rule:nonzero;stroke:#000000;stroke-width:0;stroke-miterlimit:0;stroke-opacity:1;stroke-dasharray:none" />
          <path
             id="path3761"
             d="m 755,642.36218 c 0,-24.85281 -20.14719,-45 -45,-45 -24.85281,0 -45,20.14719 -45,45 0,24.85281 20.14719,45 45,45 l 0,-15 c -16.56854,0 -30,-13.43146 -30,-30 0,-16.56854 13.43146,-30 30,-30 16.56854,0 30,13.43146 30,30 l 15,0 z"
             style="fill:#2b65ec;fill-opacity:1;fill-rule:nonzero;stroke:#000000;stroke-width:0;stroke-miterlimit:0;stroke-opacity:1;stroke-dasharray:none"
             inkscape:connector-curvature="0" />
          <path
             inkscape:connector-curvature="0"
             style="fill:#2b65ec;fill-opacity:1;fill-rule:nonzero;stroke:#000000;stroke-width:0;stroke-miterlimit:0;stroke-opacity:1;stroke-dasharray:none"
             d="m 755,642.36218 c 0,-24.85281 -20.14719,-45 -45,-45 -24.85281,0 -45,20.14719 -45,45 0,24.85281 20.14719,45 45,45 l 0,-15 c -16.56854,0 -30,-13.43146 -30,-30 0,-16.56854 13.43146,-30 30,-30 16.56854,0 30,13.43146 30,30 l 15,0 z"
             id="path3763" />
          <path
             id="path3830"
             d="m 755,642.36218 c 0,-24.85281 -20.14719,-45 -45,-45 -24.85281,0 -45,20.14719 -45,45 0,24.85281 20.14719,45 45,45 l 0,-15 c -16.56854,0 -30,-13.43146 -30,-30 0,-16.56854 13.43146,-30 30,-30 16.56854,0 30,13.43146 30,30 l 15,0 z"
             style="fill:#2b65ec;fill-opacity:1;fill-rule:nonzero;stroke:#000000;stroke-width:0;stroke-miterlimit:0;stroke-opacity:1;stroke-dasharray:none"
             inkscape:connector-curvature="0" />
          <path
             inkscape:connector-curvature="0"
             style="fill:#2b65ec;fill-opacity:1;fill-rule:nonzero;stroke:#000000;stroke-width:0;stroke-miterlimit:0;stroke-opacity:1;stroke-dasharray:none"
             d="m 755,642.36218 c 0,-24.85281 -20.14719,-45 -45,-45 -24.85281,0 -45,20.14719 -45,45 0,24.85281 20.14719,45 45,45 l 0,-15 c -16.56854,0 -30,-13.43146 -30,-30 0,-16.56854 13.43146,-30 30,-30 16.56854,0 30,13.43146 30,30 l 15,0 z"
             id="path3832" />
          <path
             id="path3834"
             d="m 755,642.36218 c 0,-24.85281 -20.14719,-45 -45,-45 -24.85281,0 -45,20.14719 -45,45 0,24.85281 20.14719,45 45,45 l 0,-15 c -16.56854,0 -30,-13.43146 -30,-30 0,-16.56854 13.43146,-30 30,-30 16.56854,0 30,13.43146 30,30 l 15,0 z"
             style="fill:#2b65ec;fill-opacity:1;fill-rule:nonzero;stroke:#000000;stroke-width:0;stroke-miterlimit:0;stroke-opacity:1;stroke-dasharray:none"
             inkscape:connector-curvature="0" />
          <path
             inkscape:connector-curvature="0"
             id="path3836"
             transform="translate(230,308.2677)"
             d="m 509.90625,300.46875 c 2.79904,10.81936 7.94664,20.68574 14.875,29.03125 -1.16883,-11.50923 -6.69206,-21.74654 -14.875,-29.03125 z"
             style="fill:#2b65ec;fill-opacity:1;fill-rule:nonzero;stroke:#000000;stroke-width:0;stroke-miterlimit:0;stroke-opacity:1;stroke-dasharray:none" />
        </g>
      </g>
    </g>
    <path
       style="fill:#2b65ec;fill-opacity:1;fill-rule:nonzero;stroke:#000000;stroke-width:0;stroke-miterlimit:0;stroke-opacity:1;stroke-dasharray:none"
       d="m 598.47572,421.68499 c -42.29861,0 -76.58844,34.28984 -76.58844,76.58844 0,42.29869 34.28983,76.58844 76.58844,76.58844 42.29862,0 76.58845,-34.28975 76.58845,-76.58844 0,-42.2986 -34.28983,-76.58844 -76.58845,-76.58844 z m 0,25.52948 c 28.1991,0 51.05896,22.85994 51.05896,51.05896 0,28.19911 -22.85986,51.05897 -51.05896,51.05897 -28.19909,0 -51.05895,-22.85986 -51.05895,-51.05897 0,-28.19902 22.85986,-51.05896 51.05895,-51.05896 z"
       id="path3796"
       inkscape:connector-curvature="0"
       inkscape:export-filename="D:\Documents\ocean ship\logo\weblogo_banner.png"
       inkscape:export-xdpi="90"
       inkscape:export-ydpi="90" />
    <path
       inkscape:connector-curvature="0"
       style="fill:#2b65ec;fill-opacity:1;fill-rule:nonzero;stroke:#000000;stroke-width:0;stroke-miterlimit:0;stroke-opacity:1;stroke-dasharray:none"
       d="m 649.53468,498.27224 c 0,42.29861 34.28983,76.58843 76.58845,76.58843 l 0,-25.52948 c -28.1991,0 -51.05896,-22.85986 -51.05896,-51.05895 l -25.52949,0 z"
       id="path3798"
       inkscape:export-filename="D:\Documents\ocean ship\logo\weblogo_banner.png"
       inkscape:export-xdpi="90"
       inkscape:export-ydpi="90" />
    <g
       transform="matrix(2.126859,0,0,2.126859,-594.02836,-1108.8306)"
       id="g3939"
       style="fill:#ffffff;fill-opacity:1"
       inkscape:export-filename="D:\Documents\ocean ship\logo\weblogo_banner.png"
       inkscape:export-xdpi="90"
       inkscape:export-ydpi="90">
      <g
         transform="translate(49.999997,55.000002)"
         id="g3941"
         style="fill:#ffffff;fill-opacity:1">
        <g
           transform="matrix(1.3500001,0,0,1.3500001,-187.25004,-310.57682)"
           id="g3943"
           style="fill:#ffffff;fill-opacity:1">
          <g
             id="g3945"
             transform="matrix(1.2345679,0,0,1.2345679,131.2963,-362.46768)"
             style="fill:#ffffff;fill-opacity:1">
            <g
               id="g3947"
               style="fill:#ffffff;fill-opacity:1">
              <path
                 transform="translate(-29.000003,431.26771)"
                 d="m 455,464.09448 c 0,24.85282 -20.14719,45 -45,45 -24.85281,0 -45,-20.14718 -45,-45 0,-24.85281 20.14719,-45 45,-45 24.85281,0 45,20.14719 45,45 z"
                 sodipodi:ry="45"
                 sodipodi:rx="45"
                 sodipodi:cy="464.09448"
                 sodipodi:cx="410"
                 id="path3949"
                 style="fill:#ffffff;fill-opacity:1;fill-rule:nonzero;stroke:#2b65ec;stroke-width:0;stroke-miterlimit:0;stroke-opacity:1;stroke-dasharray:none"
                 sodipodi:type="arc" />
            </g>
          </g>
        </g>
      </g>
    </g>
    <g
       id="g3999"
       transform="matrix(2.5549926,0,0,2.5549926,-1279.0424,-1067.8205)"
       inkscape:export-filename="D:\Documents\ocean ship\logo\weblogo_banner.png"
       inkscape:export-xdpi="90"
       inkscape:export-ydpi="90">
      <g
         id="g3029"
         transform="translate(-15.208187,0.56621321)">
        <g
           id="g3918"
           transform="translate(-89.975,-45)">
          <path
             id="path3820"
             transform="translate(0,308.2677)"
             d="m 935,289.09375 c -24.85281,0 -45,20.14719 -45,45 l 15,0 c 0,-16.56854 13.43146,-30 30,-30 16.56854,0 30,13.43146 30,30 l 15,0 c 0,-24.85281 -20.14719,-45 -45,-45 z"
             style="fill:#2b65ec;fill-opacity:1;fill-rule:nonzero;stroke:#000000;stroke-width:0;stroke-miterlimit:0;stroke-opacity:1;stroke-dasharray:none"
             inkscape:connector-curvature="0" />
          <path
             style="fill:#2b65ec;fill-opacity:1;fill-rule:nonzero;stroke:#000000;stroke-width:0;stroke-miterlimit:0;stroke-opacity:1;stroke-dasharray:none"
             d="m 637.53125,259.03125 0,67.5625 22.5,0 0,-67.5625 -22.5,0 z M 592.5,281.59375 c 0,24.85281 20.14719,45 45,45 l 0,-15 c -16.56854,0 -30,-13.43146 -30,-30 l -15,0 z"
             transform="matrix(0.66613318,0,0,0.66613318,465.32611,469.80825)"
             id="rect3825"
             inkscape:connector-curvature="0" />
          <rect
             transform="translate(0,308.2677)"
             y="334.09448"
             x="965"
             height="45"
             width="15"
             id="rect3827"
             style="fill:#2b65ec;fill-opacity:1;fill-rule:nonzero;stroke:#000000;stroke-width:0;stroke-miterlimit:0;stroke-opacity:1;stroke-dasharray:none" />
        </g>
        <rect
           style="fill:#2b65ec;fill-opacity:1;fill-rule:nonzero;stroke:#000000;stroke-width:0;stroke-miterlimit:0;stroke-opacity:1;stroke-dasharray:none"
           id="rect3995"
           width="14.95"
           height="2"
           x="800.04999"
           y="596.36218" />
        <rect
           style="fill:#2b65ec;fill-opacity:1;fill-rule:nonzero;stroke:#000000;stroke-width:0;stroke-miterlimit:0;stroke-opacity:1;stroke-dasharray:none"
           id="rect3997"
           width="14.950001"
           height="2"
           x="875.03754"
           y="596.36218" />
      </g>
    </g>
  </g>
</svg>
